<svg width="1280" height="721" viewBox="0 0 1280 721" fill="none" xmlns="http://www.w3.org/2000/svg">
<path d="M1293.24 56.3935C1285.98 86.2319 1273.26 122.283 1259.52 149.469C1259.33 149.852 1259.14 150.233 1258.95 150.615C1253.36 161.755 1247.31 172.843 1239.31 185.971C1238.28 187.643 1237.24 189.333 1236.15 191.064C1226.48 206.413 1213.95 225.032 1194.67 248.517C1129.34 327.638 1059.52 371.388 1038.77 385.019C996.114 411.954 947.985 437.115 878.13 460.491C871.755 462.596 865.172 464.678 858.372 466.728C852.846 468.394 848.243 469.322 847.981 468.923C847.742 468.515 851.943 466.935 857.449 465.279C864.097 463.279 870.527 461.25 876.747 459.203C876.776 459.194 876.804 459.185 876.832 459.175C946.993 435.747 993.915 411.115 1035.59 385.062C1056.77 371.25 1128.42 326.794 1194.85 245.669C1214.19 221.918 1226.71 203.078 1236.31 187.643C1237.36 185.955 1238.38 184.285 1239.35 182.664C1239.38 182.626 1239.4 182.588 1239.42 182.55C1247.36 169.344 1253.08 158.703 1258.36 148.066C1258.48 147.84 1258.59 147.613 1258.7 147.387C1272.45 119.936 1284.68 84.6288 1291.68 55.7951C1293.05 50.3077 1294.4 45.9465 1294.84 46.1019C1295.27 46.259 1294.62 50.8868 1293.24 56.3935ZM-16.3007 -280.983C-2.49251 -307.671 20.0394 -340.991 43.1135 -367.772C66.1683 -394.929 89.9439 -416.653 101.428 -426.567C112.583 -436.229 125.233 -446.868 140.764 -458.736C144.339 -461.466 148.087 -464.273 151.996 -467.131C164.794 -476.492 179.502 -486.545 196.092 -496.705C257.316 -533.764 301.201 -550.594 332.28 -562.337C338.7 -564.702 344.765 -566.843 350.396 -568.765C350.405 -568.768 350.415 -568.771 350.424 -568.774C371.685 -576.002 387.894 -580.661 402.878 -584.444C429.583 -591.088 451.571 -595.463 478.465 -599.39C515.36 -605.017 568.369 -609.651 602.967 -610.495C604.868 -610.558 606.815 -610.617 608.787 -610.67C611.766 -610.749 614.831 -610.815 618 -610.864C641.581 -611.168 670.384 -610.982 711.168 -606.957C749.568 -603.073 782.561 -596.899 811.569 -590.011C819.837 -588.043 827.704 -586.028 835.267 -583.98C854.247 -578.835 871.162 -573.531 886.807 -568.239C984.297 -534.455 1034.07 -500.068 1064.7 -479.275C1088.07 -462.765 1100.23 -452.25 1108.95 -444.793C1111.59 -442.507 1113.9 -440.471 1116.08 -438.555C1135.31 -421.501 1152.49 -405.006 1171.46 -383.98C1175.69 -379.275 1180 -374.326 1184.39 -369.091C1199.08 -351.53 1209.24 -337.87 1217.06 -327.012C1220.46 -322.261 1223.38 -318.083 1226.12 -314.047C1226.17 -313.973 1226.22 -313.899 1226.27 -313.825C1226.65 -313.264 1227.03 -312.707 1227.4 -312.153C1227.68 -311.736 1227.96 -311.319 1228.24 -310.901C1228.35 -310.74 1228.46 -310.594 1228.53 -310.486C1228.59 -310.4 1228.64 -310.333 1228.67 -310.29C1228.67 -310.282 1228.68 -310.274 1228.69 -310.266C1229.23 -309.484 1229.69 -308.801 1229.78 -308.661C1229.94 -308.417 1230.08 -308.199 1230.16 -308.088C1230.54 -307.501 1231.03 -306.741 1231.36 -306.235C1232.19 -304.934 1233.64 -302.672 1235.81 -299.144C1237.71 -296.08 1239.53 -293.145 1241.77 -289.41C1241.91 -289.175 1242.05 -288.94 1242.19 -288.705C1244.36 -285.065 1246.87 -280.785 1249.87 -275.354C1252.61 -270.417 1254.69 -265.636 1254.63 -264.754C1254.57 -263.871 1252.41 -267.239 1249.72 -272.167C1246.93 -277.28 1244.62 -281.288 1242.48 -284.931C1242.34 -285.162 1242.21 -285.392 1242.07 -285.623C1239.83 -289.416 1237.66 -292.992 1235.31 -296.8C1234.52 -298.077 1233.7 -299.392 1232.93 -300.618C1231.54 -302.82 1229.93 -305.313 1227.97 -308.275C1227.57 -308.87 1227.17 -309.483 1226.75 -310.109C1224.06 -314.131 1220.88 -318.756 1217.22 -323.913C1208.61 -335.994 1197.4 -351.105 1181.38 -370.073C1177.18 -375.039 1173 -379.806 1168.85 -384.389C1149.78 -405.397 1131.37 -422.987 1110.8 -440.892C1107.96 -443.355 1105.22 -445.714 1102.3 -448.181C1093.58 -455.464 1083.14 -464.304 1061.5 -479.476C1032.3 -499.078 983.916 -532.676 887.222 -566.35C870.845 -571.918 852.846 -577.539 833.561 -582.727C826.153 -584.721 818.597 -586.639 810.839 -588.482C782.331 -595.237 750.457 -601.194 713.453 -605.048C671.116 -609.334 642.146 -609.472 618 -609.171C616.405 -609.145 614.833 -609.116 613.282 -609.083C612.417 -609.064 611.552 -609.044 610.688 -609.022C609.615 -608.996 608.55 -608.968 607.494 -608.938C570.696 -608.235 514.365 -603.421 473.697 -596.966C448.111 -593.068 427.102 -588.834 400.603 -582.147C387.612 -578.808 373.757 -574.88 352.927 -567.874C347.126 -565.912 340.62 -563.638 333.555 -561.044C301.975 -549.146 257.515 -532.097 195.813 -494.587C179.816 -484.744 165.769 -475.147 153.073 -465.868C149.096 -462.961 145.223 -460.062 141.473 -457.196C125.905 -445.296 111.851 -433.501 99.0392 -422.223C88.5075 -412.995 65.6133 -391.861 43.3565 -365.496C20.7522 -339.066 0.146606 -308.248 -12.2122 -285.017C-13.5109 -282.606 -14.8011 -280.167 -16.068 -277.723C-27.0303 -256.675 -36.4516 -234.358 -42.5131 -215.932C-55.6762 -174.786 -69.5102 -115.543 -69.0626 -53C-69.3739 10.1907 -54.5052 74.7742 -34.4358 122.651C-33.9211 123.905 -33.4008 125.158 -32.8752 126.408C14.4387 236.843 83.4505 296.192 104.384 316.14C105.414 317.072 106.356 317.917 107.205 318.674C107.966 319.354 108.643 319.954 109.245 320.487C118.255 328.456 126.595 335.341 135.377 342.248C135.857 342.625 136.338 343.002 136.819 343.378C146.143 350.654 156.175 358.126 168.2 366.538C213.151 397.828 253.189 418.227 288.505 433.819C295.041 436.688 301.426 439.381 307.723 441.94C307.741 441.947 307.76 441.955 307.778 441.962C335.391 453.16 360.421 461.544 384.546 468.59C428.539 481.278 458.949 486.628 482.739 490.444C490.154 491.603 497.029 492.573 503.545 493.42C517.701 495.251 529.846 496.506 542.648 497.618C566.527 499.668 588.649 500.527 610.43 500.614C612.376 500.621 614.322 500.623 616.269 500.617C616.846 500.615 617.423 500.613 618 500.61C641.107 500.487 663.913 499.501 687.842 497.555C693.572 497.089 698.355 497.004 698.517 497.448C698.675 497.89 694.157 498.698 688.408 499.17C664.545 501.12 641.73 502.141 618.001 502.27C618.001 502.27 618 502.27 618 502.27C616.039 502.28 614.072 502.284 612.103 502.281C590.317 502.237 567.753 501.411 543.389 499.342C531.025 498.28 519.493 497.114 505.622 495.36C499.011 494.519 491.923 493.541 484.086 492.332C459.898 488.501 428.993 483.109 384.485 470.296C360.604 463.333 335.819 455.072 308.154 443.901C301.802 441.331 295.322 438.611 288.706 435.716C253.183 420.085 212.843 399.598 167.51 368.075C156.112 360.108 146.568 353.048 137.228 345.802C136.705 345.396 136.182 344.988 135.66 344.58C126.938 337.759 118.062 330.485 108.516 322.052C107.243 320.927 105.602 319.467 103.642 317.698C82.6147 297.683 13.0499 237.996 -34.5311 126.738C-34.675 126.394 -34.8186 126.05 -34.9616 125.707C-65.1747 50.9728 -67.9163 4.50623 -70.7413 -29.2462C-71.2872 -37.7679 -71.539 -45.6608 -71.5998 -53C-71.7181 -68.7488 -71.0152 -81.5696 -70.061 -92.871C-69.7927 -96.0152 -69.5069 -98.9838 -69.2087 -101.808C-67.9117 -113.978 -66.4561 -123.668 -64.8763 -133.216C-59.9065 -162.189 -54.7158 -182.686 -47.2756 -207.212C-40.9314 -228.011 -30.7241 -252.729 -20.093 -273.619C-20.0771 -273.65 -20.0614 -273.681 -20.0455 -273.713C-18.7953 -276.188 -17.5424 -278.618 -16.3007 -280.983ZM1283.71 -200.872C1285.54 -195.464 1286.54 -190.977 1286.09 -190.891C1285.64 -190.809 1283.9 -195.149 1282.08 -200.536C1277.74 -213.382 1272.84 -226.028 1267.42 -238.473C1265.14 -243.698 1263.55 -247.986 1263.99 -248.135C1264.42 -248.274 1266.73 -244.194 1269.01 -238.945C1274.45 -226.457 1279.36 -213.764 1283.71 -200.872ZM-34.7777 -263.308C-32.3504 -268.478 -29.4665 -273.405 -28.4674 -274.348C-27.4691 -275.282 -28.7679 -271.914 -31.2405 -266.789C-32.5459 -264.076 -34.6708 -259.606 -37.3721 -253.536C-51.0818 -222.96 -80.7468 -147.645 -79.3231 -53C-78.9468 -14.4368 -73.5734 26.7357 -62.4799 67.083C-59.2773 78.7655 -55.9799 89.0951 -52.556 98.8451C-36.9236 139.975 -23.5976 173.841 26.4785 241.81C164.214 420.691 394.952 510.338 618 510.068C749.614 510.289 881.845 480.306 997.94 418.379C1088.31 370.167 1169.2 302.916 1227.1 218.182C1282.26 150.328 1319.25 -5.33838 1314.04 -42.602C1314.18 -48.3883 1314.55 -53.0579 1315.01 -52.9995C1315.46 -52.9392 1315.84 -48.1594 1315.69 -42.3525C1320.86 -5.22144 1283.96 150.487 1228.97 218.379C1171.15 303.298 1090.35 370.719 1000.04 419.139C883.441 481.639 750.511 512.218 618 512.344C394.225 513.23 161.816 423.866 23.2858 243.658C-26.588 175.775 -37.6893 142.207 -53.4828 101.202C-56.9656 91.4092 -60.3369 80.9988 -63.6234 69.1805C-75.0833 28.0972 -80.6142 -13.8401 -80.9977 -53C-82.3696 -145.093 -54.4839 -218.567 -41.0396 -249.418C-38.311 -255.727 -36.1357 -260.419 -34.7777 -263.308ZM139.426 -468.752C190.864 -508.815 273.135 -553.597 350.26 -578.383C387.758 -590.868 423.355 -599.454 452.198 -605.061C496.904 -613.608 525.444 -616.008 553.769 -617.838C554.072 -617.856 554.375 -617.874 554.677 -617.892C573.894 -618.993 593.076 -619.619 618 -619.488C629.796 -619.41 642.704 -619.135 657.451 -618.454C703.849 -616.473 768.088 -609.274 830.96 -593.098C831.01 -593.085 831.059 -593.073 831.108 -593.06C893.795 -577.407 955.129 -553.265 997.034 -531.053C1143.81 -452.937 1204.91 -364.041 1232.75 -322.412C1282.23 -247.678 1317.56 -148.041 1315.09 -56.0195C1314.61 -45.8846 1313.7 -63.0164 1312.9 -81.4128C1312.87 -82.0746 1312.83 -82.7521 1312.8 -83.4216C1312.47 -89.8094 1312.09 -95.3846 1311.31 -103.189C1310.12 -114.459 1308.83 -122.914 1307.55 -130.514C1309.12 -151.694 1261.86 -285.627 1229.09 -324.943C1202.25 -364.056 1141.76 -449.832 994.924 -528.026C954.03 -549.639 894.927 -575.253 832.021 -591.115C831.849 -591.159 831.677 -591.203 831.505 -591.247C769.227 -607.37 704.534 -614.797 657.437 -616.798C642.772 -617.476 629.843 -617.754 618 -617.83C591.517 -617.964 571.298 -617.229 551.55 -616.025C551.274 -616.008 550.997 -615.991 550.72 -615.974C522.681 -614.06 495.564 -611.662 452.576 -603.451C423.155 -597.733 387.233 -589.013 349.593 -576.414C273.007 -551.63 192.104 -507.512 141.166 -467.994C136.516 -464.476 132.419 -461.727 131.934 -461.929C131.455 -462.132 134.772 -465.219 139.426 -468.752ZM134.3 -477.795C272.003 -583.606 448.08 -633.549 618 -631.63C630.834 -631.509 643.533 -631.106 656.192 -630.427C703.753 -628.511 770.132 -620.71 834.339 -603.696C835.067 -603.505 835.795 -603.314 836.523 -603.121C900.145 -586.571 960.788 -561.036 1002.27 -538.996C1150.82 -459.765 1213.79 -369.565 1242.07 -327.01C1267.92 -285.625 1272.84 -272.804 1281.59 -254.787C1281.81 -254.29 1282.04 -253.793 1282.27 -253.296C1282.28 -253.264 1282.3 -253.232 1282.32 -253.2C1282.62 -252.583 1282.87 -252.063 1283 -251.794C1283.26 -251.248 1283.46 -250.797 1283.54 -250.629C1283.72 -250.24 1283.87 -249.913 1283.92 -249.796C1284.13 -249.321 1284.38 -248.775 1284.53 -248.423C1286 -245.157 1290.38 -234.845 1293.5 -226.546C1296.73 -218.043 1298.81 -211.898 1300.91 -205.397C1301.12 -204.738 1301.33 -204.079 1301.54 -203.42C1303.39 -197.545 1305.34 -191.137 1307.86 -181.824C1309.39 -176.147 1310.02 -171.992 1309.4 -172.578C1308.78 -173.168 1307.13 -178.246 1305.57 -183.887C1302.87 -193.635 1300.75 -200.417 1298.86 -206.285C1298.64 -206.936 1298.43 -207.586 1298.22 -208.236C1296.17 -214.423 1294.29 -219.827 1291.43 -227.328C1287.22 -238.163 1283.73 -246.101 1280.45 -253.281C1271.46 -271.876 1265.7 -286.624 1238.38 -329.611C1211.16 -369.473 1150.62 -457.732 1001.56 -537.502C960.093 -559.54 899.503 -585.036 836.059 -601.533C835.312 -601.73 834.566 -601.926 833.819 -602.121C769.705 -619.099 703.544 -626.86 656.182 -628.772C643.487 -629.335 630.793 -629.62 618 -629.628C446.595 -629.545 276.242 -580.263 136.063 -477.051C108.705 -456.422 85.0838 -435.434 64.637 -414.77C4.59422 -353.568 -30.2905 -295.853 -53.7544 -237.697C-58.6568 -224.92 -72.8174 -191.321 -82.2969 -139.944C-85.0258 -124.944 -87.3094 -108.295 -88.6508 -90.2332C-89.5311 -78.3618 -90.0035 -66.0692 -89.9488 -53C-89.8062 -17.3293 -85.5589 22.5961 -74.5731 64.5921C-71.4331 76.5934 -68.181 87.2024 -64.7925 97.2173C-49.28 139.43 -37.1916 174.199 13.2253 244.252C73.0932 333.732 223.451 435.653 313.695 465.944C358.034 483.069 383.938 489.844 402.26 494.876C407.398 496.243 411.863 497.385 415.988 498.41C426.748 501.072 435.269 503.022 446.325 505.308C507.898 517.613 556.346 522.127 618 522.24C636.485 522.167 655.906 521.54 677.376 520.006C683.21 519.589 688.302 519.526 688.778 519.945C689.252 520.363 684.923 521.117 679.081 521.546C657.017 523.163 637.026 523.825 618 523.899C556.544 523.793 507.54 519.276 445.487 506.825C433.907 504.425 424.788 502.317 413.827 499.579C409.766 498.561 405.415 497.438 400.546 496.134C382.511 491.148 356.829 484.406 312.641 467.309C222.386 436.953 71.9579 334.896 12.057 245.454C-38.0459 175.899 -50.0556 141.751 -65.7318 99.6057C-69.1793 89.549 -72.5032 78.8671 -75.7265 66.7314C-87.0902 23.9434 -91.4657 -16.7525 -91.6087 -53C-91.6615 -65.5556 -91.2276 -77.4039 -90.4175 -88.8245C-89.1303 -106.944 -86.9008 -123.603 -84.2239 -138.615C-74.6141 -191.213 -61.0845 -222.858 -57.0643 -233.903C-33.3257 -294.584 3.31238 -354.945 64.2374 -416.72C84.5455 -437.173 107.786 -457.745 134.3 -477.795ZM1000.36 431.476C995.162 434.214 990.431 436.191 989.854 435.971C989.277 435.748 993.067 433.425 998.258 430.704C1025.63 416.313 1044.56 404.449 1059.12 394.937C1085.95 377.119 1098.33 367.541 1116.51 353.055C1163.46 315.216 1203.19 272.002 1233.12 228.949C1283.43 157.374 1304.63 87.7111 1312.76 51.2173C1314.07 45.462 1315.38 40.8793 1315.81 41.0285C1316.25 41.1817 1315.65 46.0201 1314.32 51.7935C1306.19 88.1495 1285.14 157.539 1234.99 229.148C1205.01 272.424 1165.11 315.976 1117.76 354.169C1100.1 368.258 1088.41 377.348 1062.16 394.918C1047.64 404.48 1028.5 416.602 1000.36 431.476Z" fill="#1C7BCA" fill-opacity="0.8"/>
<path d="M1317.3 162.49C1311.12 195.163 1300.3 235.011 1288.23 265.668C1288.06 266.098 1287.89 266.527 1287.72 266.956C1282.82 279.497 1277.45 292.093 1270.33 307.072C1269.42 308.978 1268.48 310.927 1267.51 312.912C1258.85 330.517 1247.63 351.946 1229.9 379.607C1170.11 472.82 1101.31 528.788 1080.66 545.769C1038.38 579.657 989.601 612.371 916.784 643.34C910.095 646.147 903.228 648.905 896.137 651.62C890.39 653.823 885.461 655.215 885.174 654.835C884.888 654.451 889.345 652.447 895.082 650.254C902.014 647.605 908.711 644.92 915.239 642.192C915.268 642.18 915.298 642.167 915.328 642.155C988.46 611.119 1036.01 579.092 1077.35 546.3C1098.45 529.088 1169.09 472.128 1229.85 376.602C1247.61 348.644 1258.82 326.983 1267.42 309.265C1268.36 307.321 1269.26 305.422 1270.14 303.57C1270.16 303.527 1270.18 303.483 1270.2 303.44C1277.26 288.378 1282.33 276.289 1286.97 264.318C1287.06 264.064 1287.16 263.809 1287.26 263.555C1299.35 232.586 1309.74 193.561 1315.71 161.958C1316.89 155.935 1318.09 151.126 1318.53 151.265C1318.97 151.407 1318.47 156.453 1317.3 162.49ZM-2.66882 -206.685C9.39239 -236.764 29.534 -275.112 50.7875 -306.716C71.9763 -338.705 94.5291 -365.158 105.471 -377.242C116.135 -389.073 128.202 -402.056 143.318 -416.804C146.787 -420.185 150.425 -423.662 154.217 -427.201C166.76 -438.905 181.156 -451.463 197.68 -464.384C258.608 -511.512 304.11 -533.944 336.311 -549.347C343.004 -552.476 349.225 -555.264 355.12 -557.817C355.13 -557.821 355.14 -557.826 355.15 -557.83C377.435 -567.444 394.407 -573.629 410.204 -578.759C438.389 -587.78 461.842 -593.811 490.391 -599.3C529.759 -607.21 586.644 -613.499 623.847 -614.448C625.889 -614.523 627.981 -614.592 630.099 -614.652C633.3 -614.742 636.594 -614.815 640 -614.864C665.337 -615.144 696.306 -614.735 740.022 -609.144C781.147 -603.761 816.44 -595.364 847.009 -586.172C855.811 -583.52 864.131 -580.821 872.055 -578.105C892.11 -571.221 909.702 -564.228 926.134 -557.155C1027.67 -512.265 1076.54 -468.629 1106.72 -442.732C1129.68 -422.118 1141.29 -409.343 1149.68 -400.23C1152.2 -397.46 1154.42 -394.985 1156.49 -392.658C1174.92 -371.872 1191.04 -352.074 1208.71 -327.052C1212.61 -321.493 1216.6 -315.646 1220.64 -309.469C1234.15 -288.794 1243.38 -272.863 1250.44 -260.294C1253.52 -254.789 1256.18 -249.909 1258.63 -245.279C1258.68 -245.194 1258.72 -245.109 1258.77 -245.023C1259.11 -244.378 1259.45 -243.736 1259.78 -243.099C1260.03 -242.618 1260.29 -242.139 1260.54 -241.657C1260.64 -241.471 1260.73 -241.303 1260.8 -241.177C1260.86 -241.078 1260.9 -241 1260.93 -240.95C1260.93 -240.941 1260.94 -240.932 1260.94 -240.923C1261.43 -240.02 1261.84 -239.236 1261.92 -239.075C1262.07 -238.794 1262.2 -238.544 1262.26 -238.417C1262.61 -237.743 1263.05 -236.871 1263.34 -236.29C1264.08 -234.798 1265.37 -232.204 1267.31 -228.163C1269.02 -224.651 1270.64 -221.275 1272.63 -217.025C1272.76 -216.757 1272.88 -216.489 1273.01 -216.221C1274.94 -212.067 1277.16 -207.209 1279.82 -201.043C1282.24 -195.434 1284.02 -190.085 1283.9 -189.157C1283.78 -188.23 1281.83 -192.071 1279.45 -197.678C1276.97 -203.484 1274.93 -208.039 1273.03 -212.187C1272.9 -212.45 1272.78 -212.713 1272.66 -212.976C1270.67 -217.302 1268.74 -221.378 1266.63 -225.754C1265.93 -227.219 1265.2 -228.727 1264.51 -230.134C1263.26 -232.661 1261.82 -235.524 1260.06 -238.93C1259.71 -239.614 1259.34 -240.319 1258.97 -241.04C1256.55 -245.665 1253.68 -251.02 1250.36 -257.008C1242.58 -271.004 1232.42 -288.603 1217.65 -310.983C1213.77 -316.848 1209.91 -322.471 1206.07 -327.904C1188.3 -352.915 1170.98 -374.085 1151.25 -395.926C1148.53 -398.92 1145.92 -401.773 1143.1 -404.804C1134.67 -413.735 1124.67 -424.504 1103.41 -443.439C1074.6 -467.872 1027.1 -510.498 926.469 -555.207C909.283 -562.644 890.536 -570.064 870.18 -576.998C862.426 -579.639 854.412 -582.216 846.162 -584.697C816.136 -593.706 782.037 -601.81 742.43 -607.144C697.086 -613.09 665.93 -613.444 640 -613.171C638.286 -613.145 636.598 -613.114 634.932 -613.078C634.002 -613.058 633.074 -613.035 632.145 -613.011C630.992 -612.982 629.848 -612.95 628.715 -612.916C589.154 -612.172 528.712 -605.642 485.381 -596.594C458.217 -591.152 435.791 -585.307 407.896 -576.254C394.186 -571.723 379.687 -566.51 357.869 -557.198C351.754 -554.572 345.102 -551.619 337.744 -548.19C305.023 -532.587 258.93 -509.859 197.562 -462.185C181.63 -449.667 167.89 -437.686 155.444 -426.082C151.584 -422.48 147.825 -418.891 144.186 -415.34C129.036 -400.555 115.592 -386.121 103.399 -372.374C93.3493 -361.104 71.7039 -335.462 51.2252 -304.375C30.4185 -273.201 12.0113 -237.769 1.17176 -211.499C0.0344238 -208.776 -1.09503 -206.022 -2.20349 -203.263C-11.7973 -179.493 -19.8885 -154.626 -24.9834 -134.301C-35.9584 -88.8576 -47.456 -24.2811 -47.0626 43.5C-47.2925 111.993 -34.9445 182.329 -17.5738 235.765C-17.1291 237.161 -16.6796 238.555 -16.2227 239.955C24.4333 363.275 88.784 436.13 108.906 460.165C109.883 461.293 110.775 462.316 111.579 463.233C112.298 464.053 112.95 464.791 113.526 465.442C122.164 475.199 130.118 483.592 138.635 492.15C139.101 492.618 139.567 493.084 140.035 493.55C149.084 502.57 158.794 511.809 170.622 522.357C214.729 561.509 255.209 587.925 291.417 608.26C298.128 612.011 304.724 615.553 311.217 618.912C311.236 618.922 311.255 618.932 311.274 618.942C339.675 633.608 365.928 644.818 391.13 654.164C437.283 671.087 469.827 678.427 495.087 683.602C503.081 685.199 510.341 686.51 517.297 687.671C532.35 690.17 545.479 691.916 559.127 693.427C584.772 696.237 608.485 697.443 631.872 697.602C633.962 697.615 636.051 697.621 638.141 697.616C638.761 697.615 639.38 697.613 640 697.61C664.814 697.483 689.267 696.182 714.967 693.532C721.109 692.897 726.216 692.651 726.401 693.09C726.578 693.527 721.757 694.49 715.604 695.13C689.957 697.788 665.494 699.136 640.002 699.27C640.001 699.27 640 699.27 640 699.27C637.894 699.28 635.781 699.281 633.666 699.273C610.264 699.174 586.067 698.011 559.891 695.176C546.687 693.729 534.284 692.115 519.467 689.71C512.408 688.557 504.91 687.233 496.484 685.571C470.75 680.365 437.704 672.971 390.979 655.873C366.016 646.63 340.021 635.586 311.544 620.944C304.99 617.569 298.307 613.996 291.492 610.2C255.078 589.819 214.25 563.258 169.775 523.818C158.566 513.831 149.313 505.088 140.25 496.109C139.743 495.604 139.236 495.1 138.73 494.594C130.241 486.112 121.794 477.265 112.638 466.937C111.415 465.557 109.86 463.789 108.004 461.65C87.7895 437.539 22.9337 364.249 -17.9091 240.119C-18.0339 239.736 -18.1582 239.352 -18.2823 238.968C-44.3265 155.835 -46.3373 105.945 -48.8391 69.2394C-49.3149 59.9991 -49.539 51.4478 -49.5998 43.5C-49.7191 26.4282 -49.1384 12.5995 -48.338 0.310242C-48.1131 -3.10339 -47.8733 -6.32709 -47.6228 -9.39502C-46.5331 -22.6107 -45.3124 -33.1137 -43.9918 -43.5311C-39.85 -75.041 -35.5226 -97.5308 -29.3097 -124.479C-23.9979 -147.387 -15.2573 -174.854 -5.98378 -198.379C-5.96997 -198.414 -5.95614 -198.45 -5.94233 -198.485C-4.85002 -201.277 -3.75471 -204.017 -2.66882 -206.685ZM1309.43 -117.645C1310.99 -111.687 1311.78 -106.782 1311.33 -106.729C1310.87 -106.682 1309.33 -111.498 1307.77 -117.44C1304.04 -131.654 1299.83 -145.682 1295.11 -159.603C1293.14 -165.439 1291.8 -170.211 1292.25 -170.315C1292.7 -170.411 1294.77 -165.78 1296.75 -159.923C1301.47 -145.965 1305.69 -131.896 1309.43 -117.645ZM-20.089 -185.6C-17.9909 -191.371 -15.4277 -196.944 -14.4874 -198.065C-13.5474 -199.178 -14.6158 -195.459 -16.7598 -189.722C-17.8942 -186.68 -19.7258 -181.702 -22.054 -174.937C-33.9653 -140.71 -58.7393 -58.2007 -57.3231 43.5C-56.9318 85.0836 -52.4134 129.457 -42.9756 173.574C-40.2507 186.339 -37.4218 197.723 -34.4923 208.433C-20.9348 253.942 -9.78006 291.358 35.5208 370.251C158.387 579.106 398.27 708.883 640 707.068C781.654 707.55 923.495 665.411 1040.55 585.752C1131.97 523.84 1208.55 440.363 1260.42 342.802C1309.96 263.366 1340.27 94.6623 1336.06 54.7175C1336.18 48.4733 1336.55 43.4372 1337.01 43.5006C1337.46 43.566 1337.83 48.7161 1337.71 54.9752C1341.88 94.7361 1311.68 263.321 1262.33 342.729C1210.57 440.426 1134.12 524.075 1042.81 586.22C925.301 666.59 782.693 709.482 640 709.344C397.356 711.823 155.522 581.883 32.1182 371.69C-12.9349 293.014 -21.8465 256.244 -35.5446 210.863C-38.5265 200.097 -41.4106 188.659 -44.2108 175.728C-53.9543 130.83 -58.5981 85.6785 -58.9977 43.5C-60.3615 -55.3586 -37.1177 -135.709 -25.4836 -170.133C-23.1359 -177.153 -21.2608 -182.381 -20.089 -185.6ZM141.063 -426.852C190.816 -476.316 273.659 -534.384 354.438 -567.488C393.558 -584.08 431.415 -595.745 462.106 -603.326C509.724 -614.906 540.419 -618.346 570.89 -620.981C571.215 -621.007 571.541 -621.033 571.866 -621.059C592.489 -622.654 613.181 -623.609 640 -623.488C652.709 -623.408 666.561 -623.054 682.477 -622.13C732.425 -619.457 801.384 -609.48 867.91 -587.631C867.962 -587.614 868.014 -587.597 868.066 -587.58C934.311 -566.463 997.765 -534.198 1040.1 -505.655C1188.16 -404.663 1240.65 -300.595 1266.02 -253.097C1310.1 -167.143 1339.4 -58.6591 1337.09 40.2449C1336.62 51.1725 1335.65 32.7004 1335.04 12.83C1335.01 12.1118 1334.99 11.394 1334.96 10.676C1334.7 3.79956 1334.39 -2.24823 1333.75 -10.6864C1332.75 -22.8832 1331.68 -31.9981 1330.6 -40.2687C1332.01 -62.7352 1292.02 -210.17 1262.5 -256.306C1237.97 -300.999 1185.74 -401.834 1037.65 -502.886C996.337 -530.657 935.412 -564.152 868.945 -585.549C868.764 -585.608 868.583 -585.668 868.402 -585.727C802.566 -607.485 733.121 -617.777 682.449 -620.474C666.625 -621.394 652.755 -621.752 640 -621.83C611.511 -621.953 589.718 -620.845 568.531 -619.108C568.231 -619.083 567.931 -619.058 567.631 -619.032C537.516 -616.288 508.314 -612.855 462.57 -601.738C431.276 -594.012 393.082 -582.168 353.835 -565.433C273.674 -532.354 192.236 -475.173 142.931 -426.356C138.42 -422.006 134.411 -418.512 133.892 -418.64C133.378 -418.769 136.549 -422.484 141.063 -426.852ZM134.965 -435.287C267.861 -566.392 456.233 -638.297 640 -635.63C653.86 -635.508 667.516 -635.007 681.223 -634.125C732.549 -631.537 803.978 -620.849 872.006 -597.976C872.774 -597.721 873.541 -597.465 874.307 -597.208C941.662 -574.975 1004.27 -541.295 1046.21 -512.96C1196.09 -410.475 1250.16 -304.919 1275.83 -256.568C1298.69 -209.475 1302.8 -195.38 1310.4 -175.297C1310.6 -174.745 1310.8 -174.192 1310.99 -173.639C1311.01 -173.603 1311.02 -173.567 1311.04 -173.531C1311.3 -172.843 1311.52 -172.262 1311.63 -171.963C1311.86 -171.353 1312.04 -170.855 1312.1 -170.668C1312.26 -170.236 1312.39 -169.873 1312.43 -169.744C1312.62 -169.216 1312.83 -168.612 1312.96 -168.222C1314.22 -164.596 1317.99 -153.192 1320.64 -144.071C1323.38 -134.729 1325.15 -127.957 1326.91 -120.879C1327.09 -120.161 1327.27 -119.443 1327.44 -118.724C1329 -112.319 1330.64 -105.332 1332.76 -95.1852C1334.04 -89.0057 1334.49 -84.5621 1333.9 -85.2255C1333.3 -85.9043 1331.87 -91.4003 1330.55 -97.5715C1328.28 -108.204 1326.5 -115.605 1324.9 -122.009C1324.73 -122.719 1324.55 -123.429 1324.37 -124.139C1322.64 -130.921 1321.05 -136.855 1318.6 -145.114C1315.01 -157.039 1312 -165.85 1309.17 -173.834C1301.35 -194.577 1296.52 -210.797 1272.29 -259.834C1247.49 -305.231 1195.68 -408.43 1045.35 -511.547C1003.43 -539.875 940.886 -573.499 873.737 -595.655C872.952 -595.918 872.165 -596.18 871.378 -596.44C803.462 -619.26 732.294 -629.886 681.2 -632.47C667.456 -633.237 653.811 -633.62 640 -633.628C454.756 -634.111 272.656 -563.536 136.855 -434.809C110.22 -409.195 87.8652 -383.755 68.7145 -359.02C12.6508 -285.855 -17.4677 -220.415 -37.5418 -156.279C-41.7234 -142.221 -53.7624 -105.145 -61.6285 -49.8284C-63.9059 -33.6186 -65.7901 -15.792 -66.8968 3.61713C-67.6184 16.3022 -68.0043 29.5085 -67.9488 43.5C-67.7966 81.7305 -64.2687 124.46 -54.9905 170.028C-52.3518 182.978 -49.5677 194.653 -46.6881 205.575C-33.3161 251.969 -23.5021 289.906 21.8351 370.757C74.4621 473.444 221.325 603.36 315.956 643.829C361.905 666.357 389.509 675.531 408.765 682.197C414.157 684.009 418.926 685.547 423.319 686.924C434.815 690.507 443.697 693.071 455.553 696.171C521.276 712.774 573.476 719.009 640 719.24C659.919 719.166 680.921 718.334 703.996 716.276C710.262 715.717 715.781 715.5 716.311 715.905C716.834 716.307 712.122 717.199 705.852 717.774C682.131 719.945 660.509 720.824 640 720.899C573.667 720.677 520.853 714.438 454.594 697.632C442.187 694.379 432.68 691.609 420.945 687.915C416.61 686.544 411.999 685.042 406.878 683.311C387.904 676.697 360.549 667.573 314.749 645.078C220.099 604.518 73.1826 474.438 20.5471 371.835C-24.4891 291.596 -34.2495 254.332 -47.7546 208.026C-50.6827 197.063 -53.5233 185.332 -56.2353 172.22C-65.8249 125.828 -69.4557 82.3099 -69.6087 43.5C-69.6623 30.072 -69.3083 17.3517 -68.6457 5.16656C-67.5851 -14.2869 -65.7488 -32.0974 -63.5172 -48.3052C-55.5475 -104.896 -44.0602 -139.781 -40.6362 -151.914C-20.4001 -218.641 11.2226 -287.097 68.1306 -360.971C87.1586 -385.462 109.158 -410.4 134.965 -435.287ZM1044.08 598.693C1038.81 602.219 1033.99 604.879 1033.37 604.733C1032.74 604.587 1036.55 601.716 1041.81 598.211C1069.54 579.686 1088.31 564.699 1102.72 552.718C1129.21 530.339 1141.17 518.522 1158.75 500.636C1203.93 454.151 1240.56 402.706 1267.39 353.215C1312.4 270.799 1329.7 195.151 1336.66 155.591C1337.78 149.345 1338.93 144.362 1339.37 144.506C1339.81 144.634 1339.37 149.848 1338.25 156.106C1331.29 195.484 1314.13 270.761 1269.31 353.145C1242.45 402.856 1205.7 454.662 1160.15 501.574C1143.06 518.969 1131.77 530.179 1105.9 552.219C1091.52 564.261 1072.55 579.569 1044.08 598.693Z" fill="#1C7BCA" fill-opacity="0.8"/>
</svg>
