<svg width="553" height="316" viewBox="0 0 553 316" fill="none" xmlns="http://www.w3.org/2000/svg">
<rect opacity="0.1" width="552.66" height="316" fill="url(#paint0_radial_982_2)"/>
<g clip-path="url(#clip0_982_2)">
<rect x="61.208" y="50.375" width="430.5" height="215.25" rx="8" fill="white" fill-opacity="0.2"/>
<path d="M77.208 180.325C77.208 178.116 78.9989 176.325 81.208 176.325H132.958C135.167 176.325 136.958 178.116 136.958 180.325V249.625H77.208V180.325Z" fill="white" fill-opacity="0.4"/>
<path d="M144.958 143.685C144.958 141.476 146.749 139.685 148.958 139.685H200.708C202.917 139.685 204.708 141.476 204.708 143.685V249.625H144.958V143.685Z" fill="white" fill-opacity="0.4"/>
<path d="M212.708 88.7051C212.708 86.4959 214.499 84.7051 216.708 84.7051H268.458C270.667 84.7051 272.458 86.4959 272.458 88.7051V249.625H212.708V88.7051Z" fill="white" fill-opacity="0.6"/>
<path d="M280.458 161.995C280.458 159.786 282.249 157.995 284.458 157.995H336.208C338.417 157.995 340.208 159.786 340.208 161.995V249.625H280.458V161.995Z" fill="white" fill-opacity="0.4"/>
<path d="M348.208 70.375C348.208 68.1659 349.999 66.375 352.208 66.375H403.958C406.167 66.375 407.958 68.1659 407.958 70.375V249.625H348.208V70.375Z" fill="white" fill-opacity="0.8"/>
<path d="M415.958 125.355C415.958 123.146 417.749 121.355 419.958 121.355H471.708C473.917 121.355 475.708 123.146 475.708 125.355V249.625H415.958V125.355Z" fill="white" fill-opacity="0.4"/>
</g>
<defs>
<radialGradient id="paint0_radial_982_2" cx="0" cy="0" r="1" gradientUnits="userSpaceOnUse" gradientTransform="translate(276.33 158) scale(390.79 223.446)">
<stop offset="0.0353553" stop-color="white"/>
<stop offset="0.0353553" stop-color="white" stop-opacity="0"/>
</radialGradient>
<clipPath id="clip0_982_2">
<rect x="61.208" y="50.375" width="430.5" height="215.25" rx="8" fill="white"/>
</clipPath>
</defs>
</svg>
